<?xml version="1.0" standalone="no"?>
<!DOCTYPE svg PUBLIC "-//W3C//DTD SVG 20010904//EN"
 "http://www.w3.org/TR/2001/REC-SVG-20010904/DTD/svg10.dtd">
<svg version="1.0" xmlns="http://www.w3.org/2000/svg"
 width="433.000000pt" height="521.000000pt" viewBox="0 0 433.000000 521.000000"
 preserveAspectRatio="xMidYMid meet">

<g transform="translate(0.000000,521.000000) scale(0.100000,-0.100000)"
fill="#000000" stroke="none">
<path d="M1900 5139 c-781 -101 -1440 -624 -1714 -1360 -85 -231 -117 -404
-123 -679 -6 -242 6 -360 57 -567 181 -741 775 -1339 1519 -1528 199 -50 280
-59 531 -59 195 0 254 4 350 22 336 62 642 193 907 390 113 85 340 312 425
425 197 265 328 571 390 907 29 156 31 533 5 685 -90 513 -328 941 -702 1262
-318 274 -696 445 -1100 498 -125 16 -433 19 -545 4z m524 -134 c578 -76 1108
-419 1417 -915 333 -536 390 -1194 155 -1778 -135 -333 -360 -629 -641 -840
-524 -393 -1196 -505 -1810 -301 -718 239 -1242 870 -1340 1615 -68 517 71
1037 387 1457 79 105 270 296 375 375 274 207 586 337 927 387 126 18 391 18
530 0z"/>
<path d="M586 3797 c-83 -109 -100 -358 -51 -739 13 -97 14 -130 4 -179 -17
-84 -6 -308 21 -439 11 -58 36 -149 54 -204 39 -117 21 -103 -49 39 -82 167
-124 369 -104 495 17 102 16 105 -8 108 -36 5 -27 22 12 22 38 0 42 8 24 59
-12 33 -22 36 -93 24 l-39 -6 6 -93 c19 -283 127 -586 305 -854 94 -142 308
-361 452 -462 174 -123 371 -214 572 -267 189 -49 246 -56 483 -55 199 0 232
3 346 27 645 137 1155 587 1358 1202 40 121 80 300 69 310 -10 11 -122 -57
-151 -91 -15 -18 -44 -38 -64 -45 -47 -15 -159 -7 -203 16 l-35 18 19 -22 c19
-21 19 -21 -11 -21 -35 0 -93 19 -93 30 0 4 13 13 29 20 16 6 37 20 46 30 17
18 16 19 -21 8 -22 -6 -80 -8 -130 -6 -106 6 -186 37 -245 94 l-37 36 -16 -23
c-9 -13 -16 -28 -16 -34 0 -6 -33 -30 -72 -53 -86 -48 -222 -86 -284 -79 -24
2 -98 31 -165 63 -149 71 -189 74 -343 25 -123 -39 -205 -40 -366 -7 -90 19
-117 21 -125 12 -17 -22 -52 -36 -87 -36 -44 0 -131 43 -163 81 -15 18 -30 27
-37 23 -8 -5 -9 -2 -5 9 5 14 2 15 -21 5 -15 -6 -63 -11 -107 -11 -108 -1
-182 23 -245 80 l-49 44 -15 -30 c-9 -17 -16 -37 -16 -46 0 -19 -3 -19 -49 5
-46 23 -52 50 -39 180 10 109 30 177 78 268 20 39 33 72 27 72 -23 0 -79 -45
-107 -85 -42 -61 -84 -189 -81 -247 8 -141 4 -176 -37 -333 -61 -239 -75 -397
-45 -515 3 -14 3 -22 -1 -19 -4 3 -16 53 -27 110 -32 158 -30 374 5 538 32
152 32 158 1 261 -14 46 -32 124 -41 174 -22 120 -22 353 0 460 9 44 14 81 12
83 -2 3 -16 -11 -30 -30z m302 -1043 c47 -14 66 -15 117 -5 62 12 145 12 145
0 0 -4 -24 -17 -52 -29 -66 -29 -153 -31 -228 -6 -66 22 -62 19 -54 40 8 20 4
20 72 0z m1432 -542 c14 -10 39 -22 55 -26 33 -8 126 -67 159 -100 12 -12 22
-31 23 -44 2 -20 -9 -29 -72 -59 -88 -42 -168 -52 -246 -32 -30 8 -70 14 -89
14 -26 0 -35 5 -38 19 -2 10 1 22 8 26 7 4 -1 13 -22 23 -27 13 -47 14 -112 7
-119 -14 -164 4 -90 35 31 13 35 18 29 37 -19 64 -19 68 9 68 15 0 53 -11 86
-25 59 -25 122 -35 90 -15 -8 5 -12 10 -10 12 3 2 27 14 53 27 26 13 53 33 59
44 8 16 17 18 46 13 20 -3 48 -14 62 -24z m-1632 -67 c-3 -3 -9 2 -12 12 -6
14 -5 15 5 6 7 -7 10 -15 7 -18z m924 -65 c20 -6 60 -26 87 -44 28 -19 63 -37
79 -41 68 -15 269 -171 258 -201 -3 -7 -1 -16 4 -19 20 -13 -5 -35 -78 -68
-165 -75 -279 -87 -421 -42 -63 20 -84 23 -107 15 -15 -6 -33 -9 -41 -6 -15 6
-18 62 -3 71 14 9 -5 32 -42 51 -23 12 -55 14 -166 8 -98 -5 -144 -3 -160 5
-33 18 -27 28 27 46 70 23 76 34 50 88 -44 90 -9 96 147 27 106 -47 181 -55
127 -14 -17 13 -17 13 2 14 37 1 120 47 150 83 34 40 36 41 87 27z m936 -190
c26 -6 70 -15 97 -21 57 -13 122 -46 129 -66 8 -21 -2 -35 -49 -73 -58 -46
-118 -69 -182 -69 -29 -1 -64 -6 -78 -13 -29 -13 -35 -9 -38 21 -2 33 -34 34
-116 6 -41 -14 -80 -25 -88 -25 -21 0 -15 20 12 42 l25 20 -20 25 c-11 14 -20
30 -20 35 0 6 31 9 78 7 42 -2 78 -1 80 3 2 4 20 24 40 46 20 22 43 47 50 56
15 19 19 19 80 6z"/>
<path d="M2355 2100 c28 -4 58 -10 68 -14 10 -5 17 -4 17 2 0 15 -27 22 -83
21 l-52 -2 50 -7z"/>
<path d="M2238 2093 c7 -3 16 -2 19 1 4 3 -2 6 -13 5 -11 0 -14 -3 -6 -6z"/>
<path d="M1625 1880 c-51 -6 -43 -7 53 -8 82 -2 124 -7 148 -18 42 -20 58 -9
25 17 -25 20 -98 23 -226 9z"/>
<path d="M1418 1863 c23 -2 61 -2 85 0 23 2 4 4 -43 4 -47 0 -66 -2 -42 -4z"/>
<path d="M1942 1816 c1 -10 8 -17 13 -17 15 1 12 24 -3 29 -9 3 -13 -2 -10
-12z"/>
<path d="M2623 1813 c9 -2 25 -2 35 0 9 3 1 5 -18 5 -19 0 -27 -2 -17 -5z"/>
<path d="M1620 3035 c0 -25 -63 -87 -113 -110 l-47 -22 52 -7 c29 -4 73 -18
98 -30 61 -32 222 -66 309 -66 52 0 98 9 183 36 151 48 192 45 345 -26 91 -41
124 -52 167 -52 80 -1 182 28 261 73 39 22 90 49 115 60 35 16 48 29 56 55
l11 34 -45 0 c-34 0 -66 -12 -146 -54 -111 -60 -196 -86 -277 -86 -44 0 -74
10 -171 56 -146 70 -185 73 -333 24 -93 -30 -107 -32 -195 -27 -80 5 -220 34
-235 49 -3 2 1 18 7 36 10 27 9 34 -7 51 -21 25 -35 27 -35 6z"/>
<path d="M3905 3003 c-64 -16 -111 -46 -136 -87 -31 -50 -111 -95 -184 -104
-34 -3 -45 -9 -45 -22 0 -16 3 -16 53 1 28 10 77 18 108 19 47 0 62 5 92 29
20 16 68 44 107 62 68 33 70 35 70 72 0 39 -9 43 -65 30z"/>
<path d="M1367 2991 c-17 -6 -17 -8 -3 -20 13 -11 17 -11 22 3 8 21 4 25 -19
17z"/>
<path d="M3482 733 c-24 -8 -69 -39 -101 -69 -75 -69 -104 -132 -104 -229 -1
-81 14 -133 55 -193 24 -35 32 -41 44 -31 22 18 45 3 42 -28 -3 -25 3 -31 47
-53 94 -47 278 -28 355 36 57 48 63 135 14 194 -29 33 -44 38 -44 14 0 -9 -10
-32 -22 -51 -24 -40 -104 -83 -156 -83 -37 0 -98 23 -125 48 -55 50 -77 164
-44 228 22 43 80 91 126 105 52 15 97 0 167 -57 29 -24 62 -44 72 -44 29 0 52
33 52 72 0 29 -8 43 -43 75 -82 76 -227 104 -335 66z"/>
<path d="M497 722 c-21 -23 -25 -72 -32 -363 l-6 -245 58 0 58 1 7 50 c3 28 7
80 7 116 1 77 15 98 52 79 43 -24 81 -29 128 -19 177 38 221 283 67 374 -40
24 -51 25 -183 25 -121 0 -142 -2 -156 -18z m265 -98 c28 -14 58 -60 58 -87 0
-27 -41 -66 -76 -73 -43 -8 -108 10 -135 37 -41 41 -10 120 54 138 35 10 57 6
99 -15z"/>
<path d="M1006 718 c-11 -17 -17 -63 -21 -171 -3 -81 -7 -211 -10 -290 l-5
-143 54 -2 c70 -3 76 7 76 130 0 125 6 134 80 108 30 -10 65 -17 78 -14 12 2
33 6 47 9 32 7 101 69 122 109 10 19 17 56 17 92 0 71 -20 111 -77 158 l-39
31 -153 3 c-151 3 -154 3 -169 -20z m266 -94 c52 -27 74 -87 44 -126 -34 -45
-133 -46 -186 -2 -41 35 -41 76 0 114 45 42 80 45 142 14z"/>
<path d="M1673 723 c-58 -20 -138 -95 -170 -157 -35 -68 -43 -181 -18 -255 20
-61 99 -153 157 -182 62 -32 139 -42 220 -29 85 13 111 26 167 81 106 106 108
222 5 265 -43 18 -255 19 -272 2 -7 -7 -12 -26 -12 -43 0 -41 16 -55 65 -55
60 -1 126 -16 135 -31 15 -24 -19 -70 -67 -91 -66 -29 -140 -22 -191 19 -116
94 -114 253 5 332 86 58 166 49 236 -24 54 -59 90 -61 114 -9 17 34 17 37 -2
72 -21 39 -103 95 -165 112 -51 14 -158 11 -207 -7z"/>
<path d="M2185 728 c-2 -7 -6 -121 -9 -253 -3 -132 -9 -265 -12 -296 -8 -81
-1 -85 160 -81 246 6 306 26 347 116 37 81 20 167 -45 223 l-36 32 20 33 c41
67 18 168 -49 214 -34 23 -42 24 -204 24 -125 0 -169 -3 -172 -12z m258 -89
c65 -34 84 -82 47 -119 -28 -28 -67 -35 -119 -21 -57 15 -81 36 -81 72 0 58
92 99 153 68z m65 -246 c118 -68 64 -191 -79 -180 -60 5 -133 37 -143 62 -22
58 11 116 79 140 48 17 85 11 143 -22z"/>
</g>
</svg>
